# xmcd
#
# Track frame offsets: 
#        150
#        13747
#        24862
#        40031
#        51308
#        67513
#        77286
#        88420
#        98868
#        112138
#        129134
#        140227
#        158125
#
# Disc length: 2260 seconds
#
# Revision: 0
# Processed by: cddbd v1.5.2PL0 Copyright (c) Steve Scherf et al.
# Submitted via: ExactAudioCopyFreeDBPlugin 1.0
#
DISCID=9e08d20d
DTITLE=The Cherokee Maidens - The Cherokee Maidens and Sycamore Swing
DYEAR=2014
DGENRE=
TTITLE0=Cherokee Maiden
TTITLE1=I Betcha My Heart I Love You
TTITLE2=Sympathique
TTITLE3=Head South
TTITLE4=Any Old Time
TTITLE5=Gotta Lotta Rhythm In My Soul
TTITLE6=Sugar Moon
TTITLE7=Kentucky Means Paradise
TTITLE8=I Love You, Honey
TTITLE9=See You In C-U-B-A
TTITLE10=Texarkana Baby
TTITLE11=So Nice (Summer Samba)
TTITLE12=A Prairie Home Lullaby
EXTD=
EXTT0=
EXTT1=
EXTT2=
EXTT3=
EXTT4=
EXTT5=
EXTT6=
EXTT7=
EXTT8=
EXTT9=
EXTT10=
EXTT11=
EXTT12=
PLAYORDER=
